<?xml version="1.0" encoding="UTF-8"?>
<svg id="Layer_1" data-name="Layer 1" xmlns="http://www.w3.org/2000/svg" viewBox="0 0 788.7 788.94">
  <defs>
    <style>
      .cls-1 {
        fill: #fff;
      }

      .cls-2 {
        fill: #6366f1;
      }

      .cls-3 {
        fill: #14b8a6;
      }
    </style>
  </defs>
  <g>
    <path class="cls-2" d="M392.46,12.66c8.22,.25,16.43,.5,24.65,.74,1.76,.05,3.52,.11,5.28,.09,2.45-.02,4.84,.24,7.26,.79,3.91,.89,7.95,1.03,11.96,1.13,1.96,.05,3.84,.31,5.78,.76,3.03,.7,6.18,.91,9.3,1.22,1.47,.15,2.88,.31,4.26,.94,1.99,.91,4.17,.98,6.32,1.08,1.65,.08,3.22,.14,4.79,1,1.23,.67,2.82,.72,4.27,.92,1.65,.23,3.26,.53,4.87,.96,1.97,.53,3.92,1.21,6.02,1.22,.64,0,1.31,.36,1.91,.66,1.88,.95,4,.86,5.94,1.41,1.93,.54,3.66,1.8,5.77,1.94,.29,.02,.62-.02,.87,.11,2.64,1.31,5.61,1.49,8.33,2.56,1.36,.53,2.79,.87,4.19,1.3,.83,.25,1.68,.46,2.51,.74,3.12,1.06,6.05,2.66,9.31,3.34,.46,.1,.87,.43,1.3,.66,.61,.32,1.18,.77,1.82,.92,1.79,.44,3.62,.72,5.11,1.96,.26,.22,.75,.22,1.13,.24,1.11,.04,2.09,.33,2.98,1.03,.45,.35,1.05,.61,1.61,.68,1.41,.19,2.62,.73,3.65,1.71,.27,.25,.65,.49,1,.53,2.9,.31,5.12,2.24,7.75,3.17,.82,.29,1.62,.64,2.42,.97,.62,.26,1.28,.48,1.83,.85,.74,.49,1.42,1.01,2.36,1.07,.36,.02,.71,.28,1.06,.45,1.31,.64,2.62,1.27,3.92,1.93,1.2,.61,2.16,1.71,3.61,1.81,2.62,1.83,5.68,2.86,8.4,4.52,2.06,1.26,4.26,2.27,6.38,3.43,1.53,.84,3.02,1.73,4.52,2.62,1.99,1.18,3.99,2.34,5.96,3.56,2.72,1.69,5.39,3.46,8.11,5.14,1.13,.7,2.25,1.31,3.22,2.31,.91,.94,2.26,1.51,3.48,2.09,1.48,.7,2.52,1.98,4.13,2.59,1.46,.55,2.46,2.23,3.88,3,2.58,1.39,4.73,3.34,7.11,4.99,1.56,1.08,3.23,2.07,4.64,3.38,1.34,1.25,2.76,2.48,4.24,3.51,2.39,1.67,4.53,3.63,6.85,5.38,1.15,.87,2.59,1.41,3.19,2.88,1.98,1.03,3.35,2.81,5.05,4.19,2.65,2.13,5.23,4.37,7.65,6.75,.97,.96,2.19,1.68,2.96,2.76,.59,.82,1.81,.74,2.12,1.9,.25,.95,1.62,.85,2.04,1.95,.31,.82,1.27,1.4,1.96,2.08,1.03,1.01,1.87,2.22,3.23,2.85,.69,1.53,2.51,1.99,3.24,3.53,.8,1.69,2.48,2.7,3.75,3.99,1.64,1.66,3.17,3.4,4.65,5.19,1.23,1.49,2.57,2.91,3.96,4.25,1.34,1.29,2.43,2.74,3.49,4.25,1.11,1.57,2.37,3.06,3.74,4.42,2.06,2.04,3.65,4.46,5.63,6.56,.29,1.57,2.09,1.89,2.68,3.34,.49,1.22,1.57,2.2,2.4,3.29,.24,.31,.61,.56,.73,.9,.59,1.71,2.01,2.81,3.01,4.21,1.07,1.5,2.25,2.94,3.46,4.34,1.39,1.6,2.3,3.53,3.69,5.14,.81,.94,1.51,2.02,2.04,3.14,.78,1.66,2.52,2.77,2.7,4.76,1.25,.86,1.76,2.27,2.6,3.43,.89,1.23,1.17,2.93,2.74,3.64,.4,1.11,.82,2.2,1.83,2.92,.25,1.59,1.54,2.61,2.22,3.97,.64,1.3,1.44,2.52,2.19,3.76,.6,.99,1.35,1.92,1.83,2.96,.76,1.68,2.08,3.05,2.48,4.94,.16,.74,1.08,1.28,1.47,2.01,.35,.68,.21,1.78,.71,2.18,1.61,1.3,1.51,3.63,3.16,4.85,.21,.15,.3,.5,.38,.78,.69,2.36,2.02,4.39,3.22,6.49,.91,1.6,1.66,3.29,2.46,4.95,1.18,2.44,2.27,4.94,3.57,7.32,.33,.61,.72,1.14,.7,1.83-.05,1.51,1.37,2.32,1.7,3.62,.33,1.32,.52,2.65,1.5,3.75,.48,.54,.63,1.4,.86,2.14,.28,.94,.57,1.85,1.28,2.59,.31,.33,.53,.81,.64,1.26,.31,1.34,.67,2.62,1.48,3.78,.31,.45,.31,1.12,.47,1.68,.25,.84,.32,1.84,.83,2.48,.96,1.22,.9,2.74,1.49,3.98,1.06,2.22,1.76,4.5,2.25,6.87,1.25,1.39,1.15,3.29,1.86,4.87,1.04,2.32,1.74,4.71,2.08,7.21,.01,.1,.04,.2,.09,.28,1.29,1.93,1.39,4.21,1.89,6.37,.07,.29,.01,.64,.16,.86,1.28,1.87,1.27,4.06,1.59,6.17,.09,.58,.11,1.25,.42,1.69,1.08,1.54,1.02,3.32,1.3,5.04,.28,1.74,.63,3.45,1.45,5.05,.34,.66,.46,1.47,.55,2.22,.19,1.75,.29,3.51,.45,5.26,.03,.38,.06,.85,.28,1.11,1.12,1.3,1.02,2.85,1.14,4.42,.19,2.43,.42,4.88,1.41,7.16,.56,1.3,.49,2.67,.61,4.03,.27,3.11,.62,6.22,.98,9.32,.05,.47,.27,.94,.48,1.38,.53,1.09,.6,2.24,.65,3.42,.24,6.25,.28,12.51,1.6,18.67,.24,1.14,.24,2.34,.26,3.51,.05,4.4,.1,8.79,.09,13.19-.02,8.22-.09,16.43-.13,24.65,0,.68,.05,1.37,.05,2.05,0,3.72-.16,7.39-.81,11.09-.67,3.83-.78,7.77-.99,11.67-.11,2.15,.13,4.31-1.08,6.26-.15,.24-.18,.56-.21,.85-.3,2.91-.57,5.83-.88,8.74-.08,.77-.11,1.59-.41,2.29-1.23,2.86-1.41,5.88-1.55,8.91-.06,1.27-.32,2.42-.79,3.65-.65,1.69-.84,3.6-.96,5.44-.11,1.68-.35,3.17-1.25,4.69-.71,1.2-.83,2.79-1.01,4.23-.15,1.27-.22,2.52-.95,3.63-.21,.32-.33,.71-.46,1.07-.68,1.85-.03,3.97-1.05,5.7-1.04,1.76-1.09,3.73-1.51,5.62-.12,.57-.08,1.23-.35,1.7-1,1.74-1.41,3.61-1.57,5.58-.04,.47-.11,1.05-.39,1.37-1.12,1.26-1.33,2.81-1.54,4.35-.12,.89-.34,1.68-.9,2.42-.4,.53-.65,1.22-.8,1.87-.38,1.69-.75,3.33-1.71,4.87-.62,1-.29,2.55-.79,3.67-.5,1.13-1.37,2.09-1.64,3.37-.28,1.3-.22,2.73-1.51,3.66-.3,.22-.29,.91-.37,1.39-.21,1.37-.44,2.71-1.61,3.65-.14,.11-.21,.33-.3,.5-.6,1.21-.02,2.77-1.24,3.81-1.05,.89-.98,2.27-1.36,3.46-.32,1-1.09,1.87-1.37,2.87-.37,1.33-.91,2.52-1.67,3.68-.52,.8-.56,1.93-1.14,2.67-1.33,1.72-1.47,4.01-2.92,5.65-.3,.34-.3,.92-.5,1.36-.37,.79-.77,1.56-1.21,2.32-.19,.33-.71,.58-.72,.89-.11,1.86-1.29,3.21-2.14,4.7-1.2,2.1-2.11,4.36-3.51,6.36-.6,.87-.95,1.91-1.43,2.86-.57,1.12-1.01,2.34-1.78,3.29-.76,.94-1.01,2.19-1.76,2.99-1.41,1.51-1.83,3.55-3.19,5.1-.77,.88-1.23,2.14-1.84,3.23-.53,.94-.92,1.94-1.88,2.56-.15,.1-.34,.28-.36,.44-.26,1.95-1.7,3.28-2.74,4.73-2.65,3.7-4.96,7.62-7.64,11.29-.95,1.3-1.93,2.61-2.92,3.89-1.05,1.37-2.18,2.77-2.94,4.29-.52,1.05-1.56,1.44-2.04,2.41-.43,.86-.99,1.66-1.53,2.46-.87,1.28-1.74,2.56-2.67,3.8-.51,.67-1.12,1.27-1.71,1.88-2.02,2.1-3.63,4.54-5.52,6.75-1.73,2.03-3.52,4.03-5.17,6.14-1.68,2.14-3.57,4.12-5.37,6.16-1.66,1.88-3.34,3.74-5,5.63-2,2.29-4.22,4.37-6.39,6.49-.48,1.47-2.11,1.83-2.93,3.04-.73,1.09-1.92,1.87-2.85,2.83-.85,.88-1.61,1.85-2.74,2.4-.44,1.44-1.97,1.81-2.83,2.87-.78,.96-1.88,1.66-2.82,2.5-3.52,3.18-6.89,6.55-10.6,9.5-2.2,1.75-4.09,3.85-6.45,5.4-.56,.37-.95,.96-1.47,1.4-.74,.62-1.52,1.18-2.29,1.76-.53,.4-1.09,.78-1.6,1.21-2.59,2.18-5.25,4.28-7.95,6.32-2.84,2.16-5.72,4.26-8.59,6.37-2.96,2.17-6,4.2-9.1,6.15-3.28,2.06-6.5,4.23-9.66,6.46-.8,.57-1.58,1.09-2.48,1.48-.79,.34-1.46,.95-2.2,1.41-2.4,1.46-4.81,2.9-7.21,4.35-.58,.35-1.14,.73-1.72,1.07-.58,.34-1.15,.81-1.78,.93-.82,.16-1.39,.55-2.02,1.05-.67,.54-1.54,.82-2.29,1.26-.83,.49-1.58,1.38-2.44,1.49-1.61,.2-2.4,1.59-3.72,2.08-1.39,.51-2.74,1.04-3.89,1.99-2.11,.21-3.45,2.18-5.56,2.42-.44,.05-.88,.41-1.27,.69-1.65,1.22-3.84,1.46-5.35,2.94-2.67,.39-4.75,2.17-7.21,3.07-2.07,.76-4.04,1.81-6.08,2.68-1.69,.72-3.39,1.44-5.13,2.01-1.3,.43-2.51,.87-3.63,1.74-.7,.54-1.82,.6-2.77,.77-.77,.13-1.46,.26-2.16,.72-2.31,1.51-5,2.22-7.6,3.01-1.31,.39-2.52,1-3.83,1.34-1.41,.37-2.97,.37-4.24,1-1.23,.61-2.44,1.3-3.75,1.56-1.84,.36-3.57,.99-5.28,1.7-.36,.15-.74,.34-1.11,.35-2.39,.07-4.43,1.39-6.73,1.78-.38,.06-.76,.31-1.13,.29-1.83-.12-3.48,.52-5.08,1.21-2.63,1.12-5.5,1.15-8.18,2.01-1.77,.57-3.58,1.01-5.47,.94-.19,0-.43-.03-.58,.07-1.96,1.32-4.4,.77-6.47,1.67-.35,.15-.76,.25-1.14,.25-3.27,0-6.36,.92-9.44,1.84-.09,.03-.19,.07-.29,.06-3.26-.17-6.38,.81-9.57,1.19-3.58,.44-7.2,.67-10.75,1.31-2.13,.38-4.21,.76-6.39,.6-.86-.06-1.82-.05-2.61,.25-2.08,.79-4.22,.72-6.37,.79-6.45,.21-12.91,.41-19.36,.65-.87,.03-1.73,.26-2.6,.39-1.64,.24-3.26,.55-4.93,0-.71-.23-1.56-.25-2.31-.14-3.13,.5-6.21,.38-9.31-.29-1.33-.29-2.72-.34-4.09-.37-4.6-.11-9.2-.15-13.8-.23-2.24-.04-4.47-.01-6.66-.77-1.16-.4-2.52-.18-3.78-.29-1.16-.1-2.31-.25-3.47-.39-.58-.07-1.16-.2-1.74-.26-3.88-.43-7.81-.63-11.64-1.35-2.89-.54-5.76-.91-8.69-1.1-1.35-.09-2.66-.59-3.99-.91-2.09-.5-4.28-.59-6.33-1.08-2.45-.59-5.06-.48-7.39-1.62-.5-.25-1.14-.25-1.71-.32-2.41-.31-4.84-.46-7.09-1.52-.43-.2-.95-.22-1.44-.26-.98-.07-1.86-.33-2.79-.71-1.69-.69-3.51-1.14-5.31-1.48-2.18-.42-4.43-.54-6.39-1.76-3.2-.02-5.91-1.94-9.07-2.26-1.6-.16-3.05-1.25-4.56-1.79-1.51-.53-3.39-.4-4.75-1.27-1.17-.74-2.44-.63-3.56-1.14-2.57-1.17-5.41-1.66-7.83-3.2-.32-.2-.72-.35-1.09-.39-1.69-.14-3.25-.58-4.64-1.59-.38-.27-.92-.31-1.37-.49-1.42-.59-2.92-.88-4.32-1.7-1.28-.75-3-.78-4.17-1.94-3.84-1.14-7.25-3.31-11.06-4.53-.37-.12-.77-.21-1.09-.41-3.55-2.22-7.34-3.94-11.14-5.65-.97-.43-1.74-1.36-2.73-1.67-2.18-.69-3.91-2.11-5.82-3.24-.42-.25-.86-.47-1.32-.63-1.12-.4-2.03-1.03-2.93-1.83-.74-.66-2.2-.56-2.88-1.25-1.23-1.23-2.86-1.61-4.21-2.55-1.28-.89-2.67-1.62-4-2.44-1.88-1.17-3.81-2.3-5.61-3.59-.99-.71-2.3-.76-3.08-2.04-.59-.96-1.96-1.55-3.1-2.06-1.59-.72-2.91-1.84-4.36-2.75-2.96-1.85-5.7-4.07-8.52-6.14-.63-.46-1.19-1.05-1.88-1.37-.89-.41-1.85-.64-2.13-1.76-2.4-1.27-4.05-3.61-6.62-4.65-.41-.17-.77-.53-1.08-.87-1.12-1.22-2.34-2.25-3.81-3.1-1.56-.9-2.81-2.33-4.2-3.53-.51-.44-.99-.94-1.53-1.34-.77-.56-1.66-.98-2.37-1.61-.72-.63-1.27-1.47-1.94-2.17-1.86-1.93-3.92-3.64-6.05-5.28-1.93-1.48-3.72-3.14-5.47-4.82-2.64-2.54-5.21-5.14-7.87-7.66-2.09-1.97-4.39-3.79-6.23-5.98-3.44-4.09-7.36-7.74-10.8-11.83-.25-.3-.55-.56-.84-.82-1.91-1.67-3.31-3.78-4.92-5.7-.31-.37-.53-.82-.88-1.13-.94-.84-2.3-1.44-2.8-2.47-.57-1.17-1.43-2.06-2.14-3.07-.77-1.11-1.88-1.98-2.72-3.05-1.54-1.95-2.62-4.28-4.89-5.6-.54-1.38-1.58-2.43-2.32-3.66-1-1.65-2.06-3.19-3.55-4.43-.27-.22-.35-.66-.54-.99-.33-.59-.53-1.41-1.04-1.73-1.18-.73-1.15-2.27-2.23-2.98-1.21-.8-1.53-2.23-2.4-3.28-.8-.97-1.33-2.15-2.11-3.14-2.04-2.58-3.26-5.73-5.73-8.02-.67-.63-.99-1.63-1.48-2.46-1.1-1.83-2.32-3.6-3.29-5.5-.98-1.92-2.16-3.69-3.37-5.45-.93-1.36-1.75-2.81-2.45-4.31-.77-1.65-2.01-2.99-2.68-4.73-.62-1.61-1.89-2.95-2.64-4.52-1.54-3.23-3.79-6.11-4.78-9.61-1.46-1.62-1.81-3.83-2.97-5.6-.84-1.29-1-2.97-2.32-3.99-.14-.11-.23-.34-.24-.52-.27-2.7-2.14-4.8-2.78-7.36-1.66-1.76-1.71-4.25-2.87-6.28-1.1-1.92-1.73-4.13-2.62-6.19-.95-2.2-1.87-4.43-2.48-6.77-.1-.38-.11-.87-.35-1.11-1.31-1.28-1.22-2.99-1.48-4.57-.16-.97-.3-1.87-1.02-2.67-.42-.47-.53-1.24-.72-1.89-.35-1.21-.69-2.38-1.39-3.5-.58-.93-.66-2.21-.86-3.35-.2-1.16-.21-2.32-1.25-3.17-.3-.24-.26-.88-.4-1.33-.53-1.65-.21-3.51-1.47-5-.37-.44-.19-1.32-.34-1.98-.84-3.58-2.34-7-2.64-10.72,0-.1,.02-.24-.03-.29-1.12-.98-1.11-2.22-1.19-3.61-.07-1.33-.5-2.66-.61-4.03-.06-.72-.55-1.43-.96-2.08-.43-.67-.86-1.25-.55-2.14,.14-.4-.1-.93-.2-1.4-.15-.76-.42-1.51-.48-2.28-.09-1.27-.42-2.47-.74-3.7-.59-2.25-.83-4.6-1.1-6.92-.13-1.16-.08-2.28-.87-3.32-.42-.56-.45-1.45-.55-2.21-.15-1.05-.21-2.12-.29-3.18-.07-.97-.16-1.94-.17-2.91-.03-1.58-.14-3.14-1-4.52-.43-.7-.6-1.43-.48-2.24,.03-.19,.07-.39,.05-.58-.55-4.17-.88-8.36-.92-12.56,0-.1,0-.2-.04-.29-1.01-2.49-.94-5.09-1-7.72-.16-6.55-.79-13.09-.8-19.63-.02-11.63-.24-23.27,.83-34.88,.04-.49,.24-1.03,.1-1.45-.67-1.9,0-3.63,.43-5.45,.38-1.6,.55-3.28,.58-4.93,.06-2.74,.02-5.47,.65-8.17,.17-.74-.03-1.56,.05-2.33,.09-.86,.15-1.79,.52-2.54,.72-1.47,.89-2.99,.88-4.56-.01-1.47,.03-2.93,.45-4.36,.16-.55,.24-1.17,.19-1.74-.12-1.31-.1-2.51,.89-3.56,.3-.32,.4-.9,.45-1.37,.2-2.04,.5-4.09,.46-6.12-.03-1.26,.24-2.28,.91-3.29,.26-.39,.45-.9,.46-1.35,.01-1.49,.46-2.88,.72-4.31,.21-1.17,.24-2.27,1.21-3.17,.35-.32,.33-1.08,.41-1.65,.14-.96,.18-1.94,.33-2.9,.22-1.39-.15-2.95,1.26-4.02,.29-.22,.26-.92,.29-1.4,.11-1.97,.61-3.82,1.43-5.61,.24-.52,.27-1.12,.41-1.68,.27-1.13,.35-2.37,.86-3.38,1.09-2.15,1.39-4.44,1.7-6.75,.05-.38,0-.96,.22-1.11,1.46-.95,1.16-2.6,1.62-3.93,.82-2.37,1.54-4.78,2.33-7.16,.15-.45,.43-.86,.67-1.28,.19-.34,.52-.64,.59-.99,.9-4.52,3.28-8.51,4.55-12.89,1.68-2.08,1.54-5.04,3.42-7.02,.12-.13,.21-.35,.21-.54,.03-1.84,1.13-3.31,1.92-4.8,1.37-2.58,2.05-5.46,3.73-7.91,.87-1.27,1.33-2.8,2.03-4.19,.43-.86,.97-1.67,1.44-2.52,.32-.58,.62-1.18,.9-1.79,.32-.71,.49-1.51,.93-2.13,.52-.74,.73-1.57,1.1-2.34,.91-1.91,2.07-3.71,3.16-5.54,.19-.32,.69-.56,.7-.86,.09-1.64,1.12-2.76,1.88-4.09,1.1-1.92,2.39-3.77,3.29-5.75,1.01-2.22,3-3.88,3.41-6.38,1.34-.75,1.28-2.58,2.6-3.35,.08-.05,.18-.12,.2-.21,.42-1.75,1.73-2.99,2.61-4.48,.88-1.5,1.91-2.92,2.89-4.36,.27-.4,.7-.72,.89-1.15,1.68-3.89,4.75-6.87,6.8-10.51,1.04-.66,1.33-1.91,2.08-2.72,.82-.89,1.26-1.95,1.91-2.89,.6-.86,1.19-1.81,2.01-2.42,2.09-1.56,3.22-3.86,4.7-5.86,1.28-1.72,2.85-3.22,3.94-5.03,.97-1.59,2.32-2.8,3.45-4.22,1.08-1.36,2.19-2.7,3.2-4.11,.46-.65,1.06-1.1,1.61-1.63,1.65-1.6,3.34-3.16,4.57-5.16,.48-.79,1.28-1.39,1.99-2.03,1.79-1.61,3.02-3.75,5.04-5.13,.31-.21,.58-.54,.76-.88,.69-1.34,1.84-2.21,2.94-3.19,2.32-2.07,4.43-4.37,6.69-6.51,1.89-1.79,3.36-4.02,5.6-5.47,.39-.25,.6-.76,.95-1.09,.98-.93,1.83-1.96,3.08-2.65,1.13-.62,2.03-1.7,2.96-2.65,1.61-1.65,3.65-2.87,4.91-4.87,2.05-1.01,3.49-2.78,5.16-4.24,1.75-1.53,3.8-2.63,5.49-4.21,1.71-1.6,3.72-2.82,5.47-4.32,1.88-1.61,4.12-2.77,5.76-4.66,.25-.29,.59-.57,.94-.68,1.25-.39,1.99-1.6,3.08-2.05,1.17-.48,1.87-1.38,2.76-2.08,1.07-.86,2.06-1.71,3.35-2.29,1.2-.54,2.33-1.38,3.28-2.31,1.2-1.17,3-1.5,3.93-2.99,1.4-.22,2.31-1.35,3.51-1.92,1.86-.89,3.43-2.21,5.13-3.32,.73-.48,1.38-1.05,2.33-1.17,.41-.05,.74-.55,1.14-.79,1.92-1.13,3.64-2.56,5.77-3.39,1.7-.66,3.29-1.69,4.82-2.7,1.69-1.11,3.61-1.8,5.26-2.98,.79-.56,1.68-.99,2.53-1.46,.5-.28,1.02-.54,1.55-.76,.45-.19,.98-.22,1.38-.47,2.96-1.85,6.19-3.2,9.2-4.96,.08-.05,.15-.16,.24-.17,2-.23,3.57-1.46,5.31-2.29,.88-.42,1.77-.81,2.67-1.19,.71-.3,1.45-.53,2.17-.82,.72-.29,1.5-.49,2.13-.93,.83-.57,1.64-1,2.66-1.08,.47-.03,1.06-.12,1.37-.41,1.92-1.83,4.72-1.81,6.81-3.28,.36-.25,.93-.23,1.41-.29,.98-.11,1.86-.36,2.68-1.03,.57-.47,1.41-.6,2.14-.86,.63-.23,1.31-.36,1.91-.65,1.66-.79,3.23-1.81,5.17-1.8,.19,0,.39-.07,.56-.17,2.21-1.3,4.78-1.65,7.08-2.72,.44-.21,.89-.52,1.34-.56,2.19-.16,4.24-.7,6.05-1.98,2.67-.16,5.07-1.31,7.6-2,2.16-.59,4.36-.98,6.41-1.94,.43-.2,.95-.19,1.42-.32,1.68-.48,3.35-.97,5.03-1.46,.56-.16,1.12-.44,1.68-.45,2.58-.07,4.99-.84,7.41-1.61,.64-.2,1.34-.24,2.01-.35,2.58-.43,5.23-.54,7.62-1.82,.56-.3,1.34-.25,2.01-.25,3.06,0,6.05-.24,8.85-1.64,.5-.25,1.14-.26,1.72-.33,1.65-.2,3.3-.4,4.95-.56,2.33-.24,4.69-.32,6.9-1.26,.35-.15,.77-.13,1.16-.16,3.22-.21,6.44-.49,9.67-.57,1.79-.04,3.48-.39,5.21-.75,1.43-.3,2.88-.59,4.34-.64,7.73-.27,15.45-.5,23.18-.68,3.13-.08,6.26-.01,9.4-.01v-.18ZM232.67,691.16c.65,.74,.88,1.22,1.25,1.39,2.04,.9,4.12,1.72,6.18,2.58,.27,.11,.53,.27,.75,.45,1.66,1.38,3.75,1.99,5.64,2.87,2.8,1.3,5.74,2.32,8.47,3.83,.5,.28,1.11,.36,1.66,.53,.65,.19,1.32,.34,1.95,.58,3,1.12,5.74,2.9,8.93,3.58,.36,.08,.7,.35,1.01,.57,.97,.7,2.1,.98,3.23,1.33,3.24,1.01,6.54,1.82,9.67,3.18,1.14,.49,2.54,.38,3.67,.89,1.23,.56,2.35,1.35,3.71,1.61,.29,.06,.58,.14,.87,.14,1.21,0,2.29,.39,3.36,.91,1.5,.74,3.08,1.12,4.75,1.37,1.6,.24,3.07,1.33,4.66,1.54,2.24,.29,4.33,.94,6.47,1.6,2.96,.91,6.14,1.02,8.99,2.39,2.96,.01,5.73,1.01,8.57,1.64,.1,.02,.2,.02,.29,.04,2.85,.63,5.81,.65,8.55,1.91,1.11,.51,2.48,.49,3.74,.6,1.27,.11,2.54,.08,3.81,.11,1.56,.03,3.11,0,4.54,.89,.55,.34,1.3,.43,1.97,.49,3.41,.3,6.82,.54,10.24,.81,.68,.05,1.37,.06,2.04,.19,5.6,1.09,11.28,1.33,16.95,1.48,9.29,.24,18.59,.2,27.89,.18,6.56-.01,13.11-.31,19.63-1,1.16-.12,2.32-.35,3.48-.51,1.06-.15,2.13-.3,3.19-.41,3.5-.36,7.01-.69,10.51-1.05,.48-.05,1-.13,1.41-.36,1.26-.72,2.63-.67,4-.72,1.66-.06,3.33-.09,4.98-.29,1.05-.13,2.16-.38,3.06-.9,.99-.58,2-.71,3.07-.81,1.36-.13,2.73-.22,4.09-.42,.76-.11,1.6-.24,2.22-.64,1.22-.79,2.53-.94,3.91-.97,.78-.02,1.56-.12,2.33-.25,1.46-.24,2.73-1.02,4.09-1.48,1.36-.46,2.91-.34,4.33-.7,1.02-.25,1.93-1.14,2.94-1.26,2.83-.33,5.49-1.14,8.15-2.12,1.25-.46,2.64-.67,3.85-1.31,.97-.51,1.97-.79,3.05-.93,1.36-.17,2.66-.57,3.82-1.39,.45-.32,1.05-.51,1.6-.57,1.37-.15,2.71-.2,3.73-1.37,.27-.31,.89-.34,1.36-.46,.66-.17,1.37-.21,1.98-.48,1.69-.76,3.37-1.53,5.25-1.72,.37-.04,.76-.24,1.06-.47,2.11-1.64,4.84-1.93,7.07-3.32,1.31-.82,2.75-1.66,4.23-1.92,2.47-.44,4.33-2.08,6.61-2.87,1.72-.6,3.3-1.62,4.92-2.5,1.69-.91,3.53-1.49,5.19-2.54,1.78-1.12,4.02-1.58,5.69-2.83,1.81-1.36,4.25-1.58,5.72-3.42,2.66-1.39,5.4-2.66,7.96-4.22,1.72-1.05,3.57-1.89,5.14-3.21,2.08-1.75,4.49-3.03,6.8-4.43,1.74-1.05,3.45-2.14,5.15-3.24,2.52-1.64,4.97-3.38,7.39-5.15,2.17-1.59,4.64-2.78,6.37-4.94,.23-.28,.62-.49,.98-.61,1.71-.54,2.66-2.22,4.33-2.82,2.82-2.96,6.17-5.3,9.32-7.88,.45-.36,.74-.96,1.22-1.23,2.06-1.13,3.7-2.75,5.34-4.38,.62-.62,1.31-1.17,1.98-1.73,2.01-1.64,3.84-3.51,6.01-4.96,.45-1.39,1.91-1.84,2.72-2.95,.76-1.04,2.28-1.55,2.97-2.62,.82-1.26,2.2-1.76,3.08-2.95,.6-.81,1.28-1.73,2.05-2.35,2.69-2.16,4.68-4.99,7.3-7.24,2.47-2.12,4.36-4.9,6.6-7.3,.95-1.02,1.46-2.36,2.37-3.29,1.42-1.45,2.82-2.89,4.03-4.53,1.03-1.39,2.25-2.65,3.35-4,.67-.83,1.45-1.64,1.85-2.6,.49-1.19,1.7-1.52,2.44-2.42,.8-.97,1.18-2.25,2.13-3,.83-.65,1.26-1.45,1.66-2.34,.19-.43,.36-.99,.71-1.22,2.2-1.43,2.9-4.08,4.79-5.78,.75-.67,.7-1.9,1.78-2.57,.8-.5,1.14-1.73,1.71-2.62,.68-1.06,1.31-2.15,2.09-3.12,.82-1.03,1.09-2.48,2.38-3.15,.4-1.65,1.63-2.83,2.4-4.27,.77-1.44,2.14-2.52,2.45-4.24,.04-.23,.37-.46,.62-.58,.59-.28,.76-.77,.97-1.35,.29-.81,.75-1.58,1.22-2.31,.68-1.06,1.64-2,2.1-3.14,.56-1.39,1.61-2.44,2.25-3.71,.68-1.35,.78-2.99,2.11-4.01,.3-1.48,1.65-2.5,1.97-3.83,.39-1.61,1.45-2.74,2.09-4.14,.52-1.15,1.31-2.19,1.67-3.38,.74-2.43,2.37-4.47,2.88-6.98,.07-.34,.43-.61,.67-.92,.23-.3,.64-.59,.67-.91,.2-1.9,1.35-3.39,2.05-5.08,.88-2.14,2.39-4.03,2.47-6.48,0-.18,.09-.41,.21-.54,1.64-1.57,1.78-3.83,2.7-5.73,.92-1.91,.82-4.25,2.55-5.82,.28-.26,.17-.93,.28-1.41,.31-1.41,.35-2.91,1.38-4.11,.29-.34,.32-.9,.47-1.36,.29-.93,.41-1.96,.88-2.78,.77-1.32,1.02-2.72,1.22-4.18,.14-1.06,.08-2.38,.69-3.08,1.07-1.23,1.1-2.64,1.51-4.02,.43-1.48,.42-3.1,1.46-4.41,.32-.41,.3-1.1,.39-1.67,.32-1.98,.06-4.08,1.45-5.83,.32-.4,.32-1.13,.3-1.7-.06-1.87,1.24-3.5,.92-5.42-.03-.16,.09-.42,.22-.52,1.35-1.07,.92-2.64,1.25-4.02,.5-2.12-.2-4.55,1.52-6.38,.17-.18,.19-.57,.17-.85-.2-2.75,1.15-5.36,.77-8.13-.06-.45,.06-1.03,.32-1.4,.89-1.31,.84-2.78,.87-4.24,.03-1.37,.04-2.75,.63-4.03,.39-.85,.3-1.68,.1-2.57-.41-1.85-.27-3.64,.55-5.43,.47-1.03,.65-2.25,.73-3.4,.3-4.29,.5-8.59,.73-12.88,.06-1.07,.31-2.2,.06-3.21-.61-2.54-.31-5.07-.21-7.59,.09-2.24,.4-4.48,.57-6.72,.27-3.51,.45-7.01-.45-10.5-.36-1.39-.44-2.97-.16-4.37,.61-2.94,.2-5.83,.03-8.74-.18-2.93-.38-5.85-.49-8.78-.06-1.58-.28-3.09-.91-4.56-.38-.87-.7-1.89-.63-2.81,.19-2.54,.1-5.02-.47-7.51-.15-.65-.03-1.36-.06-2.05-.05-1.17-.19-2.29-.8-3.37-.4-.71-.39-1.67-.51-2.53-.11-.77-.12-1.55-.21-2.32-.13-1.16-.35-2.32-.41-3.48-.06-1.1-.15-2.12-.94-3-.3-.33-.57-.89-.51-1.3,.32-2.37-.73-4.63-.45-6.99,.08-.71-.29-1.28-.88-1.75-.34-.28-.66-.74-.74-1.17-.25-1.34-.4-2.69-.55-4.05-.12-1.06-.09-2.14-1.11-2.89-.26-.19-.36-.68-.39-1.05-.17-1.74-.27-3.48-.46-5.22-.05-.45-.18-1.04-.49-1.3-.59-.49-.71-1.02-.81-1.74-.22-1.63-.4-3.35-1.08-4.8-.72-1.53-1.15-3.09-1.53-4.7-.11-.47-.11-1.05-.39-1.38-.97-1.1-1.11-2.44-1.39-3.78-.27-1.23-.56-2.48-1.43-3.49-.24-.28-.52-.67-.52-1.01,0-2.33-1.14-4.29-1.93-6.37-.87-2.27-1.8-4.51-2.4-6.87-.12-.47-.17-1.06-.48-1.37-1.54-1.54-.95-4.21-2.95-5.48-.07-.04-.1-.17-.11-.27-.14-2.22-1.52-3.99-2.25-5.99-.89-2.47-1.98-4.87-3-7.3-.15-.35-.32-.75-.59-.98-.74-.63-.54-1.79-1.1-2.3-.78-.71-1.03-1.56-1.41-2.42-.79-1.76-1.98-3.33-2.36-5.28-.03-.17-.18-.39-.34-.46-1.05-.47-1.23-1.47-1.39-2.42-.16-.9-.61-1.58-1.1-2.32-.91-1.37-1.84-2.76-2.46-4.27-1.29-3.16-3.7-5.64-5.01-8.78-.51-1.22-1.31-2.44-2.28-3.32-1.11-1-.82-2.91-2.46-3.46-.66-1.18-1.33-2.37-1.99-3.55-.33-.59-.53-1.31-1.01-1.75-1.68-1.54-2.68-3.51-3.69-5.48-.2-.39-.66-.64-.98-.97-.26-.26-.52-.53-.72-.84-.48-.72-.8-1.59-1.4-2.17-1.68-1.62-2.2-4.16-4.35-5.38-.36-1.62-1.69-2.57-2.58-3.82-1.16-1.63-2.23-3.29-3.64-4.76-1.88-1.96-3.35-4.31-5.48-6.07-.36-.29-.55-.78-.82-1.18-1.14-1.68-2.24-3.36-3.74-4.78-.88-.83-2.18-1.34-2.42-2.75-3.15-3.31-6.26-6.68-9.47-9.93-3.77-3.81-7.66-7.5-11.43-11.31-2.39-2.41-5.14-4.41-7.49-6.87-1.98-2.07-4.42-3.72-6.66-5.54-1.87-1.53-3.74-3.06-5.63-4.56-2.12-1.69-4.22-3.41-6.4-5.01-1.22-.9-2.57-1.62-3.51-2.85-.11-.14-.34-.19-.5-.3-2.97-2.02-5.86-4.14-8.84-6.14-2.88-1.93-5.7-3.96-8.61-5.87-.64-.42-1.13-1.18-1.81-1.38-.99-.3-1.7-.87-2.46-1.48-1.06-.85-2.09-1.87-3.32-2.35-3.19-1.23-5.56-3.95-8.95-4.76-.25-.06-.5-.33-.63-.57-.38-.66-1.07-.78-1.67-1.1-1.97-1.06-3.92-2.18-5.87-3.27-1.87-1.05-3.72-2.12-5.6-3.14-1.11-.6-2.38-.96-3.38-1.69-1.99-1.45-4.35-2.15-6.42-3.43-1.31-.82-2.7-1.71-4.17-2.04-2.92-.65-5.16-2.7-8.02-3.45-1.65-.44-3.15-1.46-4.72-2.2-.35-.17-.71-.35-1.09-.41-.97-.17-1.82-.55-2.7-1.01-2.32-1.2-5.05-1.46-7.23-3.04-.07-.05-.19-.05-.29-.06-2.7-.13-4.83-2.09-7.5-2.33-2.16-1.37-4.68-1.8-7.04-2.65-1.09-.39-2.22-.7-3.34-1.02-2.15-.6-4.3-1.27-6.48-1.75-3.31-.72-6.31-2.64-9.83-2.5-.27,.01-.55-.17-.83-.27-3.1-1.19-6.35-1.8-9.58-2.51-.66-.15-1.4-.15-1.98-.45-1.1-.57-2.25-.63-3.42-.62-2.77,.02-5.38-.86-8.04-1.41-1.14-.24-2.26-.56-3.44-.59-3.03-.09-5.91-1.34-8.98-1.12-.09,0-.2-.03-.28-.07-2.2-1.05-4.56-.97-6.91-1.04-.78-.02-1.57-.1-2.33-.28-1.92-.44-3.86-.6-5.83-.55-.77,.02-1.62,.05-2.32-.22-1.79-.7-3.65-.68-5.5-.68-12.13-.03-24.27-.58-36.4-.15-4.3,.15-8.61,.08-12.92,.15-1.56,.03-3.21-.1-4.66,.35-1.64,.51-3.24,.6-4.9,.65-.88,.03-1.76,.14-2.63,.22-2.24,.2-4.47,.42-6.71,.58-1.27,.09-2.5,.15-3.69,.76-.75,.38-1.69,.5-2.55,.52-1.47,.03-2.88,.29-4.33,.54-2.77,.48-5.57,.72-8.34,1.36-2.64,.61-5.32,1.24-8.09,1.13-.47-.02-.94,.24-1.42,.35-3.41,.82-6.86,1.48-10.21,2.5-1.78,.55-3.51,1.05-5.37,1.08-.18,0-.4,.09-.54,.21-1.26,1.02-2.87,1.14-4.32,1.57-4,1.19-8.11,2.04-11.96,3.71-.26,.11-.57,.24-.84,.21-1.56-.15-2.79,.73-4.12,1.29-.63,.27-1.21,.67-1.86,.84-3.21,.82-6.24,2.16-9.33,3.32-1.64,.62-3.29,1.18-4.93,1.8-.81,.3-1.59,.67-2.39,1-1.88,.79-3.85,1.42-5.63,2.39-2.29,1.26-5.08,1.44-7.05,3.34-.12,.11-.37,.11-.57,.11-.74,0-1.24,.4-1.81,.83-.6,.45-1.36,.69-2.05,1.03-.51,.25-1.03,.47-1.51,.77-3.03,1.93-6.46,3.08-9.49,4.99-.16,.1-.38,.11-.55,.19-.69,.33-1.4,.63-2.07,1.02-1.68,.97-3.43,1.8-5.05,2.88-1.21,.81-2.52,1.46-3.84,2.09-2,.95-3.96,1.94-5.63,3.42-.22,.19-.46,.43-.72,.49-1.49,.31-2.5,1.48-3.8,2.09-2.92,1.36-5.29,3.58-8.17,5.03-2.12,1.07-3.87,2.85-6.05,3.98-1.6,.83-3.04,2.04-4.38,3.27-1.41,1.29-3.43,1.76-4.47,3.5-2.06,.79-3.39,2.57-5.16,3.75-.64,.42-1.69,.51-2,1.07-1.03,1.83-2.99,2.42-4.41,3.7-1.38,1.24-2.67,2.6-4.18,3.67-2.6,1.84-4.94,3.97-7.29,6.09-2.24,2.03-4.37,4.18-6.57,6.25-1.35,1.27-2.71,2.53-4.15,3.7-.57,.46-1.26,.62-1.81,1.3-1.31,1.63-3.07,2.88-4.26,4.64-1.5,.19-1.68,1.77-2.65,2.55-.96,.77-1.67,1.87-2.48,2.82-.57,.67-1.09,1.38-1.69,2.02-1.4,1.49-2.84,2.95-4.26,4.42-1.41,1.46-2.84,2.91-4.23,4.39-1.36,1.44-2.25,3.32-4.05,4.34-.5,1.61-2.29,2.28-2.78,3.97-.22,.77-.94,1.55-1.64,2.01-1.59,1.05-2.01,3.13-3.72,4.04-.15,1.18-1.35,1.63-1.79,2.48-.51,.98-1.3,1.69-1.87,2.58-.74,1.14-1.84,2.1-2.36,3.32-.59,1.38-2.35,1.82-2.48,3.44-1.48,1.43-2.15,3.41-3.52,4.95-1.54,1.73-2.86,3.68-4.12,5.63-2.32,3.59-4.39,7.34-6.81,10.86-1.87,2.71-3.29,5.66-4.98,8.46-1.04,1.72-2.01,3.5-3.13,5.17-1.07,1.61-1.54,3.56-2.89,4.99-.06,.07-.09,.18-.1,.27-.14,1.43-1.16,2.45-1.69,3.68-.76,1.77-2.42,3.11-2.47,5.23-.01,.4-.52,.79-.79,1.19-.33,.48-.85,.94-.94,1.46-.39,2.35-2.22,4.06-2.66,6.43-.29,1.59-.95,3.27-1.92,4.55-1.07,1.41-1.61,2.85-1.83,4.52-.02,.17-.18,.34-.31,.49-1.84,2.03-2.12,4.78-3.21,7.16-.62,1.35-.49,3.03-1.65,4.26-.31,.32-.47,.89-.49,1.36-.05,1.51-.7,2.8-1.35,4.11-.52,1.04-1.05,2.08-1.11,3.29-.02,.37-.14,.81-.37,1.09-1.05,1.3-1.08,2.9-1.39,4.42-.13,.65-.21,1.38-.56,1.92-.82,1.25-1.37,2.65-1.49,4.06-.14,1.61-.71,3.03-1.25,4.48-.45,1.2-.81,2.39-.84,3.69-.02,.65-.17,1.4-.53,1.92-.71,1.02-.89,2.15-1.07,3.3-.29,1.9-.16,3.86-1.53,5.52-.5,.61-.49,1.66-.62,2.53-.14,.97-.14,1.95-.26,2.92-.08,.67-.11,1.42-.43,1.97-1.35,2.31-1.33,4.87-1.46,7.39-.08,1.57,.07,3.14-1.07,4.45-.18,.2-.24,.54-.27,.82-.23,2.43-.5,4.86-.61,7.29-.06,1.29-.14,2.55-.75,3.7-.57,1.07-.75,2.19-.8,3.38-.14,3.42-.28,6.84-.52,10.25-.09,1.25-.47,2.48-.68,3.72-.28,1.63-.66,3.26-.78,4.9-.16,2.14-.08,4.29-.17,6.43-.39,9.48-.45,18.96-.25,28.45,.1,4.69,.29,9.38,.53,14.07,.06,1.25,.34,2.53,.76,3.72,.51,1.42,.61,2.85,.66,4.32,.12,3.42,.23,6.84,.4,10.25,.05,.97,.06,2.03,.46,2.88,1.03,2.2,1.16,4.51,1.26,6.85,.06,1.36,.22,2.73,.41,4.08,.09,.67,.17,1.43,.55,1.94,.75,1.03,.74,2.16,.89,3.33,.29,2.22,.53,4.49,1.18,6.61,.37,1.23,.7,2.39,.75,3.67,.07,1.87,.37,3.73,1.31,5.36,.66,1.15,.88,2.34,.99,3.62,.12,1.35,.21,2.79,.75,3.99,.53,1.17,.96,2.27,1.07,3.57,.09,1.05,.46,2.09,.84,3.08,.53,1.36,1.04,2.67,1.16,4.17,.09,1.12,.48,2.36,1.12,3.27,.87,1.22,.7,2.62,1.17,3.88,.47,1.27,1.02,2.5,1.51,3.76,.1,.27,.06,.59,.13,.87,.15,.56,.32,1.12,.51,1.66,.72,2,1.9,3.84,2.06,6.03,.02,.28,.15,.61,.34,.8,.98,.96,1.17,2.19,1.34,3.45,.06,.48,.11,1.06,.4,1.38,.91,.99,1.14,2.23,1.55,3.43,.33,1,.86,1.9,1.51,2.79,.64,.88,.67,2.19,1,3.3,.08,.26,.36,.46,.5,.71,.24,.41,.57,.83,.65,1.28,.43,2.44,2.37,4.26,2.74,6.72,1.61,1.87,1.63,4.57,3.33,6.4,.24,1.91,1.72,3.24,2.33,4.98,.11,.31,.73,.43,1.15,.66,1.54-2.43,2.8-4.84,4.59-6.89,1.02-1.17,2.2-2.22,3.08-3.49,2.03-2.94,4.06-5.88,6.66-8.38,.39-.37,.47-1.12,.89-1.4,1.31-.89,2.24-2.18,2.95-3.45,.74-1.31,1.64-2.42,2.66-3.43,1.16-1.15,1.77-2.8,3.3-3.6,.4-1.47,1.82-2.2,2.53-3.47,.75-1.34,1.67-2.65,2.74-3.74,1.35-1.37,2.88-2.56,3.91-4.22,1.15-.32,.93-1.62,1.66-2.28,2.16-1.98,3.93-4.3,5.7-6.63,.35-.46,.82-.81,1.23-1.22,1.01-1.02,1.97-2.12,3.05-3.06,1.09-.95,1.56-2.46,2.99-3.09,.28-.12,.39-.62,.57-.95,.18-.33,.28-.8,.55-.99,1.97-1.33,3.28-3.31,4.79-5.04,2-2.27,4.11-4.42,6.19-6.61,2.06-2.16,3.66-4.77,6.28-6.39,2.62-3.24,5.78-5.95,8.69-8.91,3.6-3.66,7.18-7.35,10.94-10.85,3.1-2.89,6.6-5.37,9.47-8.49,1.01-1.1,2.3-1.69,3.33-2.71,2.14-2.11,4.51-3.97,6.59-6.16,.32-.34,.83-.5,1.22-.78,.63-.44,1.26-.89,1.85-1.37,2.24-1.84,4.45-3.72,6.71-5.53,2.04-1.63,4.13-3.2,6.21-4.78,1.62-1.23,3.24-2.45,4.89-3.63,.62-.44,1.59-.56,1.98-1.12,1.8-2.55,4.78-3.53,7.07-5.42,3.2-2.65,6.87-4.72,10.1-7.39,1.04-.86,2.12-1.74,3.33-2.29,2.14-.97,3.96-2.4,5.94-3.61,1.41-.86,2.8-1.74,4.21-2.59,1.81-1.1,3.64-2.18,5.46-3.27,1.33-.8,2.59-1.74,3.98-2.4,2.53-1.2,4.99-2.52,7.34-4.04,.32-.21,.7-.37,1.07-.46,1.92-.44,3.28-2.15,5.32-2.3,.16-.01,.34-.2,.46-.34,.72-.88,1.78-1.12,2.74-1.6,1.74-.86,3.57-1.55,5.24-2.47,1.96-1.08,4.23-1.45,6.02-2.87,.41-.33,1.13-.25,1.68-.44,.83-.28,1.8-.44,2.41-.98,.8-.71,1.64-.95,2.62-1.12,.67-.11,1.38-.27,1.94-.62,1.51-.95,3.24-1.3,4.86-1.96,.54-.22,1.11-.38,1.65-.62,2.29-1.02,4.98-.91,7.07-2.5,.07-.05,.19-.05,.29-.05,1.83,.14,3.4-.77,5.09-1.21,1.13-.29,2.27-.58,3.42-.73,1.28-.16,2.56-.38,3.61-1.12,1.38-.97,2.89-1,4.46-1.1,1.55-.1,3.25-.08,4.6-.72,2.04-.98,4.09-1.19,6.25-1.21,.88,0,1.75-.16,2.63-.27,3.98-.49,7.95-1,11.93-1.49,.39-.05,.78-.08,1.17-.08,4.99,0,9.98-.02,14.97,.02,.97,0,1.93,.22,2.9,.36,1.15,.17,2.3,.42,3.45,.56,1.94,.23,3.89,.4,5.84,.6,1.36,.14,2.72,.33,4.09,.4,1.66,.08,3.31,0,4.8,1.01,.53,.36,1.31,.37,1.98,.46,1.45,.19,2.95,.16,4.35,.54,1.48,.39,2.83,1.32,4.32,1.7,1.99,.51,3.89,1.25,5.84,1.82,1.86,.54,3.58,1.35,5.39,1.95,2.87,.96,5.44,2.49,8.2,3.63,1.73,.72,3.17,1.87,4.83,2.65,3.17,1.49,6.11,3.33,9,5.27,1.44,.97,2.85,1.97,4.25,3.01,1.94,1.44,3.65,3.18,5.79,4.36,1.73,2.32,4,4.09,6.08,6.06,.84,.8,1.66,1.63,2.36,2.54,.75,.97,2.14,1.36,2.41,2.73,1.69,1.74,2.92,3.83,4.39,5.73,1.79,2.31,3.19,4.86,4.88,7.23,.78,1.1,1.67,2.19,2.15,3.43,1,2.54,2.23,4.95,3.58,7.31,.24,.42,.4,.89,.52,1.36,.32,1.23,.85,2.32,1.54,3.42,.64,1.02,.66,2.42,.99,3.64,.1,.37,.28,.74,.51,1.05,.6,.83,.74,1.75,.87,2.74,.17,1.34,.26,2.86,.95,3.94,.86,1.34,1.02,2.65,1.12,4.13,.21,3.11,.2,6.28,1.21,9.27,.48,1.42,.71,2.84,.72,4.31,0,1.66-.01,3.33,0,4.99,0,3.91,.03,7.82,.03,11.73,0,1.38-.2,2.69-.87,3.96-.4,.75-.54,1.68-.61,2.54-.22,2.73-.35,5.46-.52,8.19-.03,.48,.05,1.06-.18,1.44-1.47,2.45-1.39,5.25-1.92,7.91-.08,.38-.06,.85-.29,1.12-1.26,1.53-1.23,3.45-1.65,5.23-.13,.55-.26,1.2-.62,1.56-.77,.76-1.03,1.67-1.09,2.64-.11,1.8-.85,3.39-1.54,5-.3,.71-.61,1.42-.88,2.14-.7,1.82-1.21,3.74-2.15,5.42-.66,1.18-1.42,2.27-1.92,3.57-.5,1.32-1.74,2.25-1.96,3.83-.1,.77-1.11,1.37-1.42,2.16-.96,2.47-2.65,4.51-3.76,6.87-.78,1.66-2.19,2.85-2.98,4.53-.51,1.09-1.56,1.94-1.71,3.29-.03,.31-.51,.55-.74,.85-1.15,1.54-2.85,2.7-3.23,4.78-.06,.33-.43,.59-.65,.89-.4,.53-.79,1.08-1.19,1.61-1.51,2-2.92,4.1-4.61,5.95-.58,.63-1.07,1.3-1.62,1.92-.65,.74-1.26,1.46-1.72,2.33-1.19,2.24-3.39,3.72-4.53,5.99-1.74,.98-2.73,2.62-3.81,4.21-.76,1.13-1.53,2.32-2.56,3.17-2.13,1.75-3.71,3.98-5.57,5.95-.93,.99-2.12,1.86-2.71,3.03-.7,1.4-2.16,1.87-2.98,3.06-.42,.61-1.23,.92-1.73,1.49-1.74,2.02-3.55,3.97-5.53,5.74-.79,.71-1.71,1.3-2.38,2.1-1.77,2.14-3.91,3.92-5.77,5.95-.75,.82-1.7,1.23-2.45,1.98-2.26,2.27-4.55,4.51-6.9,6.68-1.57,1.45-3.38,2.66-4.86,4.2-1.46,1.51-3.73,2.12-4.66,4.19-1.74,.39-2.5,2.05-3.83,3-2.12,1.52-3.91,3.49-6,5.04-2.16,1.6-4.03,3.59-6.42,4.88-.77,1.35-2.51,1.35-3.46,2.54-.77,.97-1.86,1.7-2.85,2.49-.98,.78-1.91,1.83-3.04,2.18-1.33,.42-1.93,1.55-2.99,2.19-1.66,1-3.29,2.04-4.86,3.16-3.8,2.69-7.57,5.42-11.61,7.76-2.17,1.25-4.23,2.67-6.44,3.87-2.81,1.54-5.36,3.55-8.19,5.04-2.22,1.17-4.34,2.55-6.64,3.52-1.97,.83-3.67,2.13-5.7,2.88-1.69,.63-3.15,1.9-5,2.29-.17,.04-.34,.2-.47,.34-.71,.76-1.61,1.04-2.61,1.2-.55,.09-1.08,.37-1.59,.63-2.76,1.41-5.44,3.03-8.56,3.58-.37,.07-.73,.26-1.06,.46-2.1,1.23-4.4,1.97-6.71,2.68-1.67,.51-3.46,.75-4.95,1.68-1.7,1.06-3.77,.89-5.48,1.92-.88,.53-2.04,.7-3.1,.81-1.1,.11-2.05,.52-3.06,.87-3.4,1.17-6.88,2.11-10.34,3.06-1.95,.53-4.01,.8-6,1.28-2.65,.64-5.32,1.22-7.97,1.86-2.47,.59-4.91,1.35-7.5,1.15-.48-.04-.97,.05-2.07,.12Zm-99.22-79.84c.61-.47,1.51-.8,1.78-1.41,.98-2.18,2.64-3.77,4.14-5.54,2.06-2.43,3.83-5.1,5.91-7.53,.31-.36,.43-.92,.79-1.18,2.85-2.09,4.67-5.12,6.98-7.69,2.9-3.22,5.42-6.78,8.49-9.87,.72-.72,1.84-1.14,2.07-2.36,.23-1.22,2.15-1.08,2.17-2.54,1.2-1.26,2.47-2.46,3.57-3.79,1.74-2.09,3.33-4.3,5.32-6.18,.92-.87,1.97-1.65,2.7-2.66,1.74-2.41,3.81-4.55,5.77-6.75,1.93-2.16,3.96-4.24,5.87-6.44,1.47-1.69,2.83-3.48,4.46-5,1.99-1.86,3.43-4.25,5.68-5.85,.13-1.57,1.88-1.77,2.52-3.05,.62-1.24,2.01-2.08,2.95-3.19,1.13-1.32,2.14-2.74,3.21-4.11,.3-.38,.59-.79,.97-1.06,1.21-.86,2.19-1.91,3.04-3.12,1.26-1.78,2.85-3.29,4.23-4.98,1.9-2.33,4.13-4.39,6.21-6.58,.33-.35,.73-.71,.9-1.14,.63-1.6,2.02-2.57,3.1-3.77,2.06-2.3,4.33-4.41,6.5-6.61,.65-.66,1.01-1.37,.26-2.35-1.05,.46-2.28,.64-2.93,1.36-.98,1.09-2.6,1.29-3.29,2.67-.11,.23-.44,.42-.71,.49-2.03,.56-3.46,2.07-5.12,3.2-1.26,.86-3,1.09-3.72,2.69-1.65,.22-2.72,1.45-4.01,2.29-1.27,.83-2.29,2.01-3.82,2.52-.68,.23-1.15,1.06-1.83,1.36-.73,.32-1.33,.62-1.87,1.26-.52,.61-1.44,.87-2.13,1.35-.95,.66-1.85,1.41-2.8,2.08-1.02,.71-2.08,1.37-3.11,2.06-1.75,1.18-2.94,3.14-5.15,3.69-.17,.04-.29,.26-.44,.38-2.96,2.34-5.83,4.8-8.91,6.97-1.74,1.22-3.42,2.51-5.06,3.84-1.63,1.32-3.37,2.51-5,3.85-2.53,2.08-5.09,4.14-7.67,6.15-2.53,1.96-5.11,3.87-7.59,5.9-.81,.67-1.97,.94-2.37,2.08-1.19,.28-1.91,1.22-2.81,1.92-1.38,1.07-2.62,2.35-4.27,3.05-.5,1.06-1.83,1.15-2.41,1.98-.65,.93-1.6,1.35-2.41,2.02-4.02,3.3-7.99,6.64-12.02,9.91-1.66,1.35-3.25,2.79-4.87,4.18-1.68,1.44-3.35,2.88-5.04,4.29-.74,.62-1.56,1.15-2.29,1.78-1.69,1.44-3.04,3.28-5.18,4.22-.91,.4-.95,1.75-.22,2.54,.32,.35,.99,.54,1.1,.92,.5,1.79,2.26,2.62,3.02,4.25,.71,1.51,1.89,2.81,3.22,3.97,1.15,1,1.94,2.4,2.94,3.59,.94,1.12,2.16,2.07,2.84,3.33,.76,1.39,1.83,2.47,2.89,3.51,1.02,1,1.53,2.56,3.46,3.14Zm34.38,37.02c.44,.73,.6,1.23,.94,1.51,.81,.68,1.78,1.18,2.55,1.9,2.47,2.31,5.33,4.13,7.92,6.29,1.11,.93,2.14,2.08,3.43,2.65,1.93,.85,3.26,2.41,4.98,3.46,1.56,.95,2.77,2.42,4.6,2.99,1.84,.57,2.21,.47,3.43-1.03,.85-1.05,1.74-2.16,2.84-2.88,1.73-1.13,3.19-2.54,4.69-3.91,1.58-1.45,3.06-3.03,4.8-4.25,1.37-.96,2.57-2.06,3.76-3.2,1.11-1.07,2.21-2.14,3.35-3.18,3.65-3.32,7.32-6.61,10.97-9.93,.64-.58,1.1-1.36,1.78-1.88,1.83-1.41,3.31-3.18,4.95-4.77,2.61-2.55,5.2-5.12,7.77-7.72,2.1-2.12,4.28-4.17,6.38-6.29,1.21-1.22,2.39-2.51,3.55-3.79,1.21-1.34,2.76-2.31,3.84-3.8,.95-1.32,2.42-2.17,3.43-3.5,.92-1.22,2.09-2.25,3.18-3.33,2.68-2.66,5.38-5.31,8.07-7.96,.48-.47,1.06-.86,1.48-1.39,.33-.41,.47-.97,.73-1.54-1.83-.12-3.12,.63-4.38,1.54-1.33,.95-2.63,2.13-4.13,2.61-1.89,.6-3.45,1.74-5.21,2.52-1.94,.86-3.61,2.33-5.56,3.16-1.55,.66-2.76,1.84-4.32,2.38-1.83,.63-3.11,2.39-5.19,2.47-.08,0-.18,.09-.24,.16-1.34,1.5-3.27,2.09-4.96,2.97-1.21,.63-2.15,1.77-3.47,2.06-2.45,.53-4.26,2.23-6.39,3.33-1.59,.83-3.31,1.47-4.78,2.67-.98,.8-2.46,.92-3.56,1.86-1.08,.92-2.5,1.48-3.83,2.06-3.1,1.35-5.66,3.71-8.97,4.66-.25,.07-.42,.39-.66,.54-.65,.4-1.31,.79-1.99,1.14-.51,.27-1.22,.34-1.56,.74-1.33,1.53-3.57,1.58-4.89,3.08-2.36,.93-4.52,2.21-6.67,3.55-1.35,.84-3.06,1.09-4.18,2.41-.16,.19-.53,.24-.81,.31-1.56,.38-2.83,1.3-4.12,2.17-1.21,.81-2.31,1.75-3.88,1.91-.62,.06-1.25,.55-1.79,.95-1.73,1.3-3.63,2.25-5.66,2.97-.7,.25-1.31,.78-2.2,1.33Z"/>
    <path class="cls-2" d="M241.6,355.1c-.37-.9-.25-1.65,.41-1.96,.98-.47,1.32-1.29,1.8-2.14,.61-1.1,1.41-2.1,2.21-3.08,2.06-2.53,4.37-4.89,5.69-7.95,.39-.9,1.69-.92,1.8-2.17,.09-1.07,1.75-1.18,1.85-2.47,.08-1.02,1.06-1.63,1.46-2.44,.77-1.57,2.3-2.58,2.83-4.34,.28-.93,1.29-1.63,1.85-2.51,.51-.81,.8-1.77,1.29-2.6,1.04-1.73,2.55-3.18,3.02-5.26,.09-.41,.61-.72,.93-1.07,.19-.21,.46-.4,.55-.65,.42-1.27,.43-2.74,1.81-3.52,.33-1.35,1.08-2.47,1.91-3.57,.28-.36,.32-.9,.5-1.34,.22-.54,.34-1.17,.72-1.57,1.61-1.69,2.18-3.88,3.02-5.94,.51-1.24,.69-2.61,1.84-3.57,.36-.3,.33-1.07,.46-1.63,.23-.92,.15-1.99,1.29-2.46,.21-.09,.32-.46,.43-.73,1.13-2.79,2.16-5.62,3.42-8.35,.37-.81,.68-1.56,.79-2.44,.09-.67,.17-1.43,.53-1.97,1.39-2.07,1.56-4.6,2.68-6.77,.35-.67,.38-1.51,.62-2.24,.55-1.73,.22-3.75,1.77-5.15,.23-.21,.17-.74,.25-1.12,.27-1.24,.32-2.59,.87-3.68,.99-1.96,1.41-4.02,1.65-6.15,.02-.19,.04-.46,.16-.55,1.96-1.32,1.18-3.75,2.24-5.52,.96-1.62,1.19-3.68,1.73-5.55,.08-.28,0-.73,.17-.83,1.59-1.02,1.14-2.77,1.55-4.2,.11-.38,.05-.89,.28-1.12,1.05-1,1.02-2.5,1.69-3.58,1.21-1.93,1.65-4.16,2.75-6.11,.56-1,.84-2.16,1.2-3.27,.3-.91,.39-1.83,1.23-2.57,.52-.46,.64-1.39,.87-2.13,.21-.65,.25-1.36,1.03-1.65,.16-.06,.36-.25,.38-.41,.22-1.68,.9-3.13,2.11-4.32,.83-2.51,2.29-4.67,3.67-6.89,1.58-2.54,2.97-5.19,4.46-7.79,.67-1.17,1.93-1.96,2.24-3.37,1.77-1.59,2.56-3.85,3.88-5.75,.71-1.02,2.14-1.46,2.26-2.9,1.28-1.58,2.54-3.17,3.83-4.73,1.17-1.42,2.55-2.69,3.51-4.24,1.39-2.24,3.33-3.93,5.09-5.8,1.98-2.1,4-4.19,6.3-5.98,.6-.46,.98-1.2,1.5-1.77,1.96-2.14,4.29-3.86,6.52-5.7,2.75-2.27,5.81-4.15,8.56-6.38,2.75-2.22,5.92-3.66,8.76-5.65,1.57-1.1,3.13-2.25,4.94-3.02,2.4-1.01,4.67-2.37,6.88-3.7,2-1.21,4.46-1.39,6.19-3.06,.25-.24,.73-.25,1.1-.36,.47-.14,.98-.19,1.41-.41,1.9-1,3.85-1.79,6-2.1,.46-.07,.88-.39,1.31-.62,.26-.14,.47-.39,.74-.47,2.69-.82,5.39-1.62,8.09-2.4,1.31-.38,2.72-.54,3.93-1.12,1.47-.72,2.96-.9,4.54-.93,2.08-.04,4.09-.49,5.97-1.34,.92-.42,1.83-.6,2.82-.66,5.86-.35,11.71-.78,17.58-1.07,2.83-.14,5.67-.17,8.5-.04,4.01,.19,8,.58,12,.88,1.17,.09,2.34,.17,3.52,.2,2.25,.06,4.44,.22,6.62,1.03,2.19,.82,4.55,1.12,6.93,1.06,1.18-.03,2.27,.15,3.33,.84,.78,.5,1.83,.61,2.79,.8,1.82,.35,3.63,.63,5.38,1.36,1.33,.56,2.84,.68,4.25,1.04,.65,.17,1.27,.43,1.88,.7,.44,.2,.82,.6,1.28,.69,1.33,.28,2.76,.27,4.02,.73,1.15,.42,2,1.49,3.35,1.65,1.16,.14,2.21,.65,3.25,1.25,.99,.57,2.31,.6,3.26,1.21,1.17,.76,2.42,1.21,3.66,1.77,2.02,.91,3.93,2.08,5.89,3.14,.17,.09,.29,.3,.47,.35,3.35,.91,5.75,3.61,9,4.72,.91,1.19,2.35,1.65,3.47,2.56,.67,.54,1.46,.93,2.24,1.31,1.14,.55,1.73,1.7,2.95,2.26,1.38,.64,2.54,1.8,3.68,2.85,.92,.85,2.37,1,2.93,2.28,2.66,1.5,4.42,4.04,6.77,5.91,3.36,2.68,6.08,6.01,9.22,8.93,1.96,1.83,3.52,4.08,5.25,6.16,.97,1.17,1.92,2.35,2.86,3.55,1.19,1.53,2.35,3.08,3.53,4.61,1.23,1.59,2.15,3.39,3.42,5.16,1.03,.01,2.1,.08,3.16,.03,3.91-.18,7.82-.54,11.73-.55,4.89,0,9.78,.39,14.67,.42,4.73,.03,9.28,1.11,13.9,1.84,3.48,.54,6.94,1.02,10.29,2.12,.55,.18,1.16,.18,1.75,.2,.9,.04,1.67,.35,2.48,.74,1.22,.58,2.55,1.1,3.87,1.23,1.4,.14,2.67,.56,3.91,1.1,1.07,.48,2.12,.95,3.3,1.1,.37,.05,.81,.17,1.07,.42,.99,.93,2.2,1.2,3.48,1.37,.37,.05,.8,.17,1.07,.4,1,.85,2.2,1.2,3.38,1.68,1.16,.47,2.13,1.45,3.31,1.78,1.19,.33,2.03,1.16,3.07,1.58,1.82,.73,3.02,2.53,5.1,2.76,.25,.03,.58,.28,.68,.5,.34,.83,.95,1.15,1.79,1.31,.6,.12,1.1,.54,1.05,1.22-.06,.72-.7,.9-1.29,.93-.98,.05-1.96,.01-2.93,.02-1.76,0-3.47,.01-5.07,1.05-.78,.51-1.86,.78-2.79,.77-1.63-.01-3.01,.62-4.45,1.2-2.52,1.02-5.09,1.92-7.62,2.92-.9,.35-1.74,.84-2.61,1.27-.26,.13-.51,.41-.77,.41-2.32,.02-3.85,1.72-5.72,2.68-1.81,.93-3.41,2.35-5.28,3.04-1.95,.71-3.28,2.4-5.31,2.88-.43,.1-.76,.57-1.18,.82-1.66,.99-3.08,2.32-4.84,3.21-1.12,.56-2.06,1.63-3.13,2.43-3.03,2.27-5.79,4.85-8.61,7.36-.83,.74-1.17,2-2.45,2.27-.43,1.15-1.55,1.71-2.23,2.61-.75,1-2.42,1.05-2.54,2.6-1.9,1.58-2.96,3.81-4.34,5.78-1.34,1.9-2.28,4.1-3.73,5.9-1.38,1.71-1.76,3.87-3.1,5.58-.87,1.11-.87,2.68-1.69,3.96-.74,1.16-.76,2.79-1.1,4.21-.09,.38-.15,.79-.34,1.11-1.17,1.9-1.45,4.02-1.53,6.18-.04,1.18-.13,2.29-.81,3.36-.39,.61-.49,1.46-.58,2.22-1,8.58-.87,17.18-.28,25.78,.06,.88-.03,1.77,.08,2.64,.09,.76,.17,1.62,.58,2.22,.88,1.31,.94,2.73,1.04,4.19,.12,1.75,.1,3.57,.59,5.22,.79,2.62,1.37,5.25,1.77,7.94,.07,.48,.12,1.09,.43,1.38,1.31,1.23,1.13,2.84,1.26,4.38,.11,1.28,.24,2.48,1.18,3.52,.47,.53,.6,1.39,.81,2.12,.43,1.49,.55,3.08,1.45,4.43,.26,.38,.29,.91,.43,1.37,.49,1.65,.29,3.52,1.73,4.87,.28,.26,.2,.92,.26,1.41,.23,1.94,.45,3.87,1.53,5.6,.35,.56,.42,1.29,.59,1.95,.49,1.88,.56,3.87,1.61,5.61,.27,.46,.2,1.14,.24,1.72,.17,2.26,.62,4.43,1.53,6.53,.3,.69,.4,1.5,.48,2.26,.22,1.94,.32,3.9,.57,5.84,.11,.86,.3,1.77,.72,2.51,.66,1.17,.8,2.38,.86,3.66,.07,1.66,.19,3.32,.3,4.98,.11,1.66,.31,3.26,1.06,4.82,.48,1,.48,2.27,.54,3.43,.2,3.81,.37,7.62,.49,11.43,.1,3.03,.12,6.06,.14,9.09,.03,3.91,.03,7.82,.03,11.73,0,.98-.06,1.96-.11,2.93-.2,3.9-.4,7.81-.63,11.71-.04,.78,0,1.62-.3,2.31-1.34,3.15-1.37,6.48-1.5,9.79-.06,1.67-.3,3.18-1.05,4.77-.76,1.62-.85,3.59-1.04,5.42-.13,1.28-.21,2.49-.99,3.6-.94,1.34-.88,2.98-1.01,4.52-.08,1-.25,1.89-.77,2.77-.39,.66-.58,1.45-.75,2.2-.35,1.5-.46,3.02-1.54,4.33-.56,.68-.55,1.84-.73,2.8-.22,1.14-.27,2.31-1.18,3.24-.38,.39-.48,1.06-.65,1.62-.42,1.39-1.03,2.73-1.45,4.08-.81,2.62-2.32,4.91-3.06,7.55-.44,1.56-1.51,2.91-2.15,4.45-1.16,2.76-2.58,5.42-3.96,8.08-.3,.59-1.16,.99-1.26,1.57-.34,1.98-2.06,3.26-2.45,5.18-.08,.37-.25,.74-.45,1.06-1.83,2.97-3.48,6.09-5.58,8.85-2.64,3.47-4.52,7.46-7.51,10.67-1.12,2.37-2.99,4.22-4.37,6.41-.51,.8-1.24,1.46-1.88,2.17-1.8,2.01-3.06,4.44-5.02,6.34-1.24,1.19-2.22,2.66-3.24,4.06-.62,.84-1.83,1.15-2.03,2.34-2.07,1.8-3.59,4.08-5.42,6.1-2.08,2.3-4.32,4.45-6.5,6.67-2.73,2.77-5.4,5.59-8.2,8.28-2.67,2.56-5.5,4.96-8.25,7.43-1.65,1.48-3.16,3.15-4.95,4.42-2.61,1.85-4.69,4.39-7.59,5.85-.56,1.13-1.94,1.33-2.61,2.16-.69,.86-1.47,1.47-2.31,2.1-1.76,1.34-3.2,3.1-5.36,3.93-.48,.18-.73,1.09-1.19,1.19-1.22,.27-1.28,1.64-2.33,2.08-.86,.36-1.49,1.28-2.35,1.65-2.25,.99-3.91,2.78-5.88,4.13-1.04,.71-2.1,1.44-3.01,2.31-1.78,1.69-4.19,2.39-6.01,4.01-.78,.69-1.65,1.47-2.61,1.72-1.18,.31-1.65,1.38-2.59,1.8-2.73,1.22-4.78,3.53-7.58,4.65-.96,.38-1.69,1.29-2.6,1.83-1.25,.74-2.58,1.35-3.85,2.05-.33,.18-.55,.53-.86,.75-.63,.44-1.28,.86-1.95,1.24-.33,.19-.89,.16-1.07,.42-1.26,1.83-3.5,2.02-5.21,3.1-1.6,1.01-3.14,2.29-5.09,2.72-2.57,2.27-6.17,2.88-8.63,5.33-.07,.06-.18,.12-.26,.12-2.54-.12-4.06,2.21-6.36,2.65-1.39,1.28-3.31,1.52-4.88,2.45-1.51,.89-3.07,1.7-4.6,2.54-.34,.19-.66,.5-1.02,.55-1.69,.23-3.1,1.14-4.64,1.74-.99,.39-1.91,1.04-2.84,1.31-2.73,.78-5.26,2-7.86,3.06-.62,.25-1.24,.48-1.87,.72-2.91,1.09-5.82,2.19-8.73,3.28-.18,.07-.39,.06-.56,.14-2.03,.97-4.14,1.59-6.33,2.15-3.01,.77-5.9,2.03-8.84,3.08-.46,.16-.9,.48-1.36,.51-2.48,.13-4.68,1.23-7.01,1.87-1.6,.44-3.22,.79-4.83,1.18-2.74,.67-5.46,1.49-8.23,1.99-2.29,.41-4.51,1.23-6.91,1.04-.93-.07-1.89,.32-2.84,.51-.95,.19-1.95,.28-2.85,.62-3.01,1.1-6.2,.7-9.25,1.25-4.19,.76-8.38,.48-12.56,.61-2.84,.09-5.68,0-8.52,.04-1.76,.02-3.52,.1-5.28,.17-.62,.02-1.18,0-1.46-.88,1.13-1.14,2.57-1.92,4.16-2.34,.96-.25,1.8-.66,2.67-1.08,2.36-1.15,4.83-2.05,7.15-3.26,2.23-1.16,4.74-1.76,6.67-3.51,.55-.5,1.39-.68,2.08-1.04,2.31-1.21,4.67-2.34,6.9-3.68,2.14-1.29,4.35-2.46,6.41-3.9,2.84-1.99,5.93-3.58,8.87-5.43,2.79-1.75,5.52-3.61,8.29-5.41,2.99-1.94,5.88-4.04,8.76-6.15,2.01-1.47,3.94-3.11,6.11-4.28,2.51-1.36,4.37-3.5,6.74-5,2.44-1.55,4.73-3.37,6.92-5.26,2.91-2.51,6.28-4.42,8.82-7.42,1.54-1.82,3.71-3.11,5.64-4.6,2.95-2.28,5.91-4.54,8.44-7.32,.78-.85,1.68-1.63,2.63-2.28,3.73-2.55,6.53-6.07,9.77-9.13,1.48-1.4,2.89-2.88,4.35-4.3,2.28-2.24,4.35-4.66,6.3-7.19,.47-.61,1.01-1.17,1.55-1.73,1.74-1.81,3.38-3.7,5.05-5.56,1.81-2.02,3.53-4.1,5.1-6.3,.96-1.33,2.24-2.35,3.19-3.68,.67-.93,1.18-2.05,2.02-2.77,.96-.82,1.44-1.77,1.88-2.88,.18-.46,.96-.65,1.28-1.09,1.52-2.11,3.45-3.96,4.28-6.52,.09-.27,.22-.57,.43-.75,1.78-1.56,2.79-3.63,4.05-5.56,1.36-2.09,2.66-4.24,4.24-6.19,.48-.59,.87-1.23,1.12-2.01,.32-.99,1.01-1.85,1.57-2.76,1.33-2.13,2.7-4.22,3.99-6.37,.34-.57,.47-1.28,.62-1.95,.18-.79,.38-1.48,1.24-1.83,.27-.11,.44-.59,.55-.94,.36-1.17,.21-2.59,1.65-3.2,.08-.03,.16-.15,.17-.23,.24-1.89,1.7-3.24,2.21-5.02,.29-1,.43-2.13,1.47-2.76,.15-.09,.25-.31,.3-.49,.93-3.61,2.96-6.78,4.15-10.28,.37-1.1,1.01-2.1,1.44-3.18,.29-.71,.44-1.48,.63-2.22,.38-1.49,.55-2.97,1.45-4.37,.74-1.16,.77-2.78,1.1-4.19,.11-.47,.06-1.04,.31-1.4,1.33-1.87,1.19-4.07,1.49-6.17,.07-.48-.06-.97,.4-1.32,1.07-.81,1.05-2.01,1.15-3.18,.08-.96,.32-1.9,.46-2.86,.1-.66,.32-1.37,.18-1.99-.28-1.25-.04-2.35,.67-3.34,.67-.93,.78-1.96,.84-3.04,.1-1.66,.32-3.3,.43-4.96,.07-.97,.1-1.95,0-2.91-.2-2.07-.2-4.06,.65-6.04,.41-.96,.56-2.09,.57-3.14,.05-4.89,.06-9.78-.02-14.67-.02-1.24-.49-2.47-.7-3.72-.19-1.15-.6-2.37-.39-3.44,.28-1.4,.12-2.7-.06-4.05-.21-1.55-.42-3.1-.49-4.65-.05-1.01-.18-1.92-.82-2.74-.76-.96-.96-2.05-.98-3.29-.03-1.55-.36-3.09-.57-4.63-.03-.19-.02-.46-.14-.56-1.87-1.53-1.03-3.82-1.58-5.72-.27-.94-.35-1.89-1.01-2.7-.28-.35-.43-.86-.5-1.32-.27-1.75-.57-3.46-1.68-4.94-.27-.36-.29-.91-.43-1.37-.19-.66-.23-1.42-.61-1.95-1.11-1.56-1.51-3.34-1.97-5.13-.11-.45-.46-.84-.72-1.25-.25-.4-.65-.76-.77-1.2-.57-2.17-1.9-3.99-2.7-6.06-.8-2.06-2.22-3.87-3.23-5.86-.74-1.46-2.28-2.46-2.38-4.29-.01-.26-.56-.48-.83-.74-.27-.26-.6-.52-.75-.85-1.85-3.91-4.66-7.12-7.47-10.32-1.15-1.31-2.44-2.48-3.24-4.12-.49-.99-1.46-1.75-2.27-2.56-2.52-2.52-5.04-5.03-7.6-7.51-.88-.85-1.87-1.61-2.84-2.37-.84-.66-1.77-1.2-2.58-1.89-2.95-2.52-5.96-4.95-9.4-6.79-.74-.4-1.36-1.03-2-1.6-1.69-1.53-3.94-2.09-5.8-3.31-1.06-.69-2.13-1.35-3.21-2.01-.33-.2-.69-.34-1.04-.49-.63-.26-1.3-.44-1.89-.76-2.47-1.33-4.93-2.6-7.62-3.49-2.75-.91-5.34-2.29-8-3.46-.09-.04-.17-.13-.26-.14-2.76-.22-5.12-1.83-7.86-2.21-1.71-.24-3.47-.68-5.03-1.4-1.03-.48-2-.61-3.06-.77-1.93-.29-3.89-.56-5.72-1.16-1.53-.51-3.02-.68-4.59-.74-1.16-.04-2.31-.31-3.46-.47-1.06-.14-2.12-.43-3.17-.38-1.78,.1-3.51-.12-5.24-.45-1.34-.25-2.7-.5-4.06-.53-8.41-.21-16.83-.62-25.24-.08-1.17,.08-2.35-.02-3.52-.01-2.65,.02-5.29,.09-7.84,.9-.09,.03-.19,.09-.28,.08-3.06-.3-5.94,.97-8.96,.99-1.47,.01-2.87,.35-4.31,.68-2.26,.52-4.51,1.3-6.89,1.23-.49-.01-1,0-1.46,.14-1.76,.54-3.49,1.2-5.27,1.69-1.69,.46-3.42,.76-5.13,1.15-1.61,.37-3.28,.61-4.8,1.22-3.15,1.28-6.46,2.02-9.67,3.1-2.76,.93-5.55,1.78-8.31,2.69-.45,.15-.85,.43-1.29,.61-1.35,.54-2.72,1.05-4.06,1.6-1.97,.8-3.93,1.62-5.89,2.45-.98,.42-1.96,.86-2.92,1.3-2.29,1.06-4.57,2.13-6.85,3.2-.44,.21-.86,.61-1.3,.61-1.59,.01-2.7,.97-3.92,1.76-1.23,.79-2.49,1.53-3.79,2.18-.89,.44-1.89,.42-3.01,.12Z"/>
  </g>
  <g>
    <path class="cls-1" d="M486.4,203.73c-20.29-.12-36.5,15.96-36.61,36.33-.11,20.14,16.06,36.16,36.61,36.27,19.26,.1,35.47-16.24,35.5-35.79,.04-20.43-15.64-36.69-35.5-36.81Zm-60.62,282.66c0-9.91-7.85-18.1-17.46-18.21-9.98-.11-18.06,8.27-18.04,18.71,.02,9.74,7.61,17.36,17.41,17.5,10.02,.14,18.09-7.89,18.09-18Zm-88.37-36.52c-10.57,0-18.71,7.75-18.78,17.92-.07,9.81,7.81,17.67,17.83,17.76,9.85,.09,18.19-8.15,18.23-18.01,.04-9.55-7.89-17.66-17.28-17.67Zm48.41,101.6c.03-9.79-7.54-17.82-16.97-18.02-9.99-.21-18.3,7.87-18.31,17.81-.01,9.74,7.62,17.84,17.01,18.06,10.01,.23,18.24-7.82,18.27-17.85Zm-90.73,1.05c10.28,.1,18.3-7.48,18.55-17.53,.23-9.33-7.8-17.78-17.1-17.99-9.55-.21-17.9,7.88-18.1,17.55-.21,10.07,7.03,17.87,16.66,17.96Z"/>
    <path d="M486.4,203.73c19.86,.12,35.54,16.38,35.5,36.81-.04,19.55-16.25,35.89-35.5,35.79-20.55-.11-36.72-16.13-36.61-36.27,.11-20.36,16.32-36.45,36.61-36.33Zm.47,22.54c-8.07,0-14.35,6.18-14.32,14.09,.03,7.79,6.55,14.37,14.28,14.39,7.79,.02,14.36-6.54,14.33-14.32-.03-8-6.25-14.16-14.29-14.16Z"/>
    <path d="M425.77,486.39c0,10.11-8.07,18.14-18.09,18-9.8-.14-17.39-7.76-17.41-17.5-.02-10.44,8.06-18.82,18.04-18.71,9.61,.11,17.46,8.29,17.46,18.21Z"/>
    <path d="M337.4,449.87c9.39,0,17.33,8.13,17.28,17.67-.05,9.87-8.38,18.1-18.23,18.01-10.02-.09-17.91-7.95-17.83-17.76,.08-10.17,8.21-17.93,18.78-17.92Z"/>
    <path d="M385.81,551.47c-.03,10.03-8.27,18.08-18.27,17.85-9.39-.21-17.02-8.32-17.01-18.06,.01-9.94,8.31-18.01,18.31-17.81,9.43,.19,17,8.23,16.97,18.02Z"/>
    <path d="M295.08,552.52c-9.62-.09-16.86-7.9-16.66-17.96,.2-9.67,8.55-17.77,18.1-17.55,9.3,.21,17.34,8.66,17.1,17.99-.25,10.05-8.27,17.62-18.55,17.53Z"/>
    <path class="cls-3" d="M486.86,226.27c8.04,0,14.25,6.17,14.29,14.16,.03,7.78-6.54,14.34-14.33,14.32-7.73-.02-14.25-6.6-14.28-14.39-.03-7.92,6.25-14.1,14.32-14.09Z"/>
  </g>
</svg>